<?xml version="1.0" encoding="utf-8"?>
<!-- Generator: Adobe Illustrator 25.1.0, SVG Export Plug-In . SVG Version: 6.00 Build 0)  -->
<svg version="1.1" id="Layer_1" xmlns="http://www.w3.org/2000/svg" xmlns:xlink="http://www.w3.org/1999/xlink" x="0px" y="0px"
	 viewBox="0 0 280.8 187.2" style="enable-background:new 0 0 280.8 187.2;" xml:space="preserve">
<style type="text/css">
	.st0{fill:#3B373E;}
	.st1{font-family:'BebasNeue';}
	.st2{font-size:24.323px;}
	.st3{letter-spacing:2;}
	.st4{fill-rule:evenodd;clip-rule:evenodd;fill:#3B373E;}
</style>
<g>
	<text transform="matrix(1 0 0 1 93.2829 109.152)"><tspan x="0" y="0" class="st0 st1 st2 st3">D</tspan><tspan x="12.83" y="0" class="st0 st1 st2 st3">ICO.DE</tspan><tspan x="77.34" y="0" class="st0 st1 st2">V</tspan></text>
	<path class="st4" d="M192.04,87.64l-0.72-12.83l-1.46,0.57c-4.31,1.68-8.58,2.52-13.04,2.52c-6.66,0-12.33-1.85-17.33-3.46
		c-3.69-1.2-6.91-2.22-9.7-2.25h-0.23c-0.38,0-0.75,0.03-1.11,0.07c-4.56,0.55-6.82,4.06-7.97,7.6c-1.13-3.55-3.39-7.06-7.95-7.6
		c-0.39-0.05-0.79-0.07-1.19-0.07h-0.15c-2.81,0.03-6.02,1.07-9.7,2.25c-5.02,1.61-10.69,3.44-17.33,3.46
		c-4.45,0-8.72-0.84-13.04-2.52l-1.46-0.57l-0.72,12.83h-3.92v1.99h110.75v-1.99H192.04L192.04,87.64z M148.73,74.5
		c2.69-0.34,6.06,0.79,10.07,2.09c4.92,1.57,11.05,3.55,18.04,3.55c4.25,0,8.33-0.69,12.42-2.13l0.46,8.5h-48.06
		C141.77,83.48,142.7,75.22,148.73,74.5L148.73,74.5z M91.76,78.02c4.09,1.42,8.17,2.13,12.4,2.13c6.99,0,13.1-1.97,18.02-3.56
		c4.02-1.3,7.42-2.42,10.09-2.09c6.01,0.73,6.94,8.99,7.07,12.01H91.28L91.76,78.02z"/>
</g>
</svg>
